# xmcd CD database file
#
# Track frame offsets:
#	150
#	41166
#	73364
#	110616
#	139601
#	157036
#	191179
#	243291
#	266481
#	279584
#
# Disc length: 4342 seconds
#
# Revision: 0
# Processed by: cddbd v1.4PL0 Copyright (c) Steve Scherf et al.
# Submitted via: CDex 1.50Beta7
#
DISCID=9c10f40a
DTITLE=Miles Davis and Lee Morgan - Miles Davis and Lee Morgan
DYEAR=1990
DGENRE=Jazz
TTITLE0=So What
TTITLE1=I Remember Clifford
TTITLE2=If I Were A Bell
TTITLE3=Hocus Pocus
TTITLE4=Tempus Fugit
TTITLE5=Boy , What A Night
TTITLE6=All Blues
TTITLE7=C.T.A.
TTITLE8=Little Willie Leaps
TTITLE9=The Sidewinder
EXTD=YEAR: 1990
EXTT0=
EXTT1=
EXTT2=
EXTT3=
EXTT4=
EXTT5=
EXTT6=
EXTT7=
EXTT8=
EXTT9=
PLAYORDER=
